<svg width="33" height="32" viewBox="0 0 33 32" fill="none" xmlns="http://www.w3.org/2000/svg">
<path d="M32.1884 0H0.737793V32H32.1884V0Z" fill="#F16D7F"/>
<g clip-path="url(#clip0)">
<path d="M16.137 12.6817C14.0219 12.6817 12.3158 14.385 12.3158 16.4967C12.3158 18.6084 14.0219 20.3117 16.137 20.3117C18.2522 20.3117 19.9582 18.6084 19.9582 16.4967C19.9582 14.385 18.2522 12.6817 16.137 12.6817ZM16.137 18.977C14.7702 18.977 13.6527 17.8647 13.6527 16.4967C13.6527 15.1287 14.7668 14.0164 16.137 14.0164C17.5072 14.0164 18.6213 15.1287 18.6213 16.4967C18.6213 17.8647 17.5039 18.977 16.137 18.977ZM21.0058 12.5256C21.0058 13.0203 20.6067 13.4154 20.1145 13.4154C19.619 13.4154 19.2233 13.017 19.2233 12.5256C19.2233 12.0342 19.6223 11.6358 20.1145 11.6358C20.6067 11.6358 21.0058 12.0342 21.0058 12.5256ZM23.5367 13.4287C23.4801 12.2367 23.2074 11.1809 22.3328 10.3109C21.4614 9.44103 20.4039 9.16876 19.21 9.109C17.9794 9.03927 14.2913 9.03927 13.0607 9.109C11.8701 9.16544 10.8126 9.43771 9.93792 10.3076C9.06326 11.1776 8.79388 12.2334 8.73402 13.4254C8.66418 14.6539 8.66418 18.3361 8.73402 19.5647C8.79056 20.7567 9.06326 21.8125 9.93792 22.6824C10.8126 23.5524 11.8668 23.8246 13.0607 23.8844C14.2913 23.9541 17.9794 23.9541 19.21 23.8844C20.4039 23.8279 21.4614 23.5557 22.3328 22.6824C23.2041 21.8125 23.4768 20.7567 23.5367 19.5647C23.6065 18.3361 23.6065 14.6572 23.5367 13.4287ZM21.947 20.8828C21.6876 21.5336 21.1854 22.035 20.5303 22.2973C19.5492 22.6858 17.2212 22.5961 16.137 22.5961C15.0528 22.5961 12.7215 22.6824 11.7438 22.2973C11.0919 22.0383 10.5898 21.5369 10.327 20.8828C9.93792 19.9033 10.0277 17.5791 10.0277 16.4967C10.0277 15.4143 9.94125 13.0867 10.327 12.1106C10.5864 11.4598 11.0886 10.9584 11.7438 10.6961C12.7249 10.3076 15.0528 10.3973 16.137 10.3973C17.2212 10.3973 19.5525 10.3109 20.5303 10.6961C21.1821 10.9551 21.6843 11.4565 21.947 12.1106C22.3361 13.0901 22.2463 15.4143 22.2463 16.4967C22.2463 17.5791 22.3361 19.9067 21.947 20.8828Z" fill="white"/>
</g>
<defs>
<clipPath id="clip0">
<rect width="14.8991" height="17" fill="white" transform="translate(8.68408 8)"/>
</clipPath>
</defs>
</svg>
